name rise45.9887peak57.8056fall74.9286.mot
datacolumns 19
datarows 54
range 6.246647 6.334989
endheader
time	ground_force1_vx	ground_force1_vy	ground_force1_vz	ground_force1_px	ground_force1_py	ground_force1_pz	ground_force2_vx	ground_force2_vy	ground_force2_vz	ground_force2_px	ground_force2_py	ground_force2_pz	ground_torque1_x	ground_torque1_y	ground_torque1_z	ground_torque2_x	ground_torque2_y	ground_torque2_z	
6.246647	-44.745435	248.423767	5.488971	0.063830	0.000000	0.080688	61.576023	552.695800	-36.359245	0.377171	0.000000	-0.104385	0.000000	8.000985	0.000000	0.000000	-12.088720	0.000000	
6.248313	-43.154635	238.624392	5.145988	0.062688	0.000000	0.080548	61.941194	558.578985	-37.181573	0.376378	0.000000	-0.104516	0.000000	7.674652	0.000000	0.000000	-12.535313	0.000000	
6.249983	-41.534607	228.929831	4.818668	0.061594	0.000000	0.080407	62.273916	564.449633	-37.997394	0.375600	0.000000	-0.104645	0.000000	7.348027	0.000000	0.000000	-12.981871	0.000000	
6.251642	-39.888884	219.359009	4.507110	0.060554	0.000000	0.080264	62.574727	570.306844	-38.806060	0.374838	0.000000	-0.104771	0.000000	7.021567	0.000000	0.000000	-13.427908	0.000000	
6.253307	-38.220739	209.932117	4.211459	0.059572	0.000000	0.080118	62.844215	576.149608	-39.606938	0.374089	0.000000	-0.104894	0.000000	6.695688	0.000000	0.000000	-13.872944	0.000000	
6.254976	-36.533122	200.669863	3.931887	0.058655	0.000000	0.079970	63.083008	581.976800	-40.399418	0.373354	0.000000	-0.105016	0.000000	6.370758	0.000000	0.000000	-14.316503	0.000000	
6.256646	-34.828624	191.592470	3.668576	0.057809	0.000000	0.079819	63.291773	587.787179	-41.182906	0.372630	0.000000	-0.105134	0.000000	6.047089	0.000000	0.000000	-14.758114	0.000000	
6.258314	-33.109478	182.718453	3.421682	0.057041	0.000000	0.079664	63.471212	593.579381	-41.956832	0.371916	0.000000	-0.105251	0.000000	5.724933	0.000000	0.000000	-15.197314	0.000000	
6.259978	-31.377604	174.063222	3.191302	0.056359	0.000000	0.079504	63.622063	599.351918	-42.720644	0.371213	0.000000	-0.105365	0.000000	5.404495	0.000000	0.000000	-15.633646	0.000000	
6.261641	-29.634705	165.637616	2.977422	0.055772	0.000000	0.079340	63.745087	605.103177	-43.473811	0.370517	0.000000	-0.105476	0.000000	5.085938	0.000000	0.000000	-16.066664	0.000000	
6.263308	-27.882415	157.446455	2.779872	0.055291	0.000000	0.079169	63.841076	610.831415	-44.215826	0.369829	0.000000	-0.105586	0.000000	4.769411	0.000000	0.000000	-16.495928	0.000000	
6.264975	-26.122499	149.487282	2.598275	0.054927	0.000000	0.078992	63.910840	616.534759	-44.946203	0.369148	0.000000	-0.105693	0.000000	4.455074	0.000000	0.000000	-16.921010	0.000000	
6.266643	-24.357097	141.749413	2.432001	0.054693	0.000000	0.078806	63.955210	622.211203	-45.664477	0.368471	0.000000	-0.105798	0.000000	4.143137	0.000000	0.000000	-17.341492	0.000000	
6.268309	-22.588997	134.213486	2.280130	0.054605	0.000000	0.078611	63.975031	627.858609	-46.370206	0.367799	0.000000	-0.105901	0.000000	3.833903	0.000000	0.000000	-17.756967	0.000000	
6.269982	-20.821923	126.851644	2.141432	0.054680	0.000000	0.078406	63.971161	633.474706	-47.062973	0.367130	0.000000	-0.106001	0.000000	3.527810	0.000000	0.000000	-18.167042	0.000000	
6.271641	-19.060814	119.628482	2.014362	0.054937	0.000000	0.078188	63.944467	639.057090	-47.742379	0.366463	0.000000	-0.106100	0.000000	3.225473	0.000000	0.000000	-18.571334	0.000000	
6.273308	-17.312062	112.502845	1.897090	0.055401	0.000000	0.077955	63.895820	644.603227	-48.408053	0.365798	0.000000	-0.106197	0.000000	2.927725	0.000000	0.000000	-18.969477	0.000000	
6.274974	-15.583680	105.430489	1.787542	0.056099	0.000000	0.077706	63.826095	650.110454	-49.059641	0.365134	0.000000	-0.106291	0.000000	2.635640	0.000000	0.000000	-19.361117	0.000000	
6.276641	-13.885372	98.367555	1.683489	0.057064	0.000000	0.077437	63.736167	655.575980	-49.696817	0.364469	0.000000	-0.106384	0.000000	2.350549	0.000000	0.000000	-19.745915	0.000000	
6.278307	-12.228478	91.274695	1.582650	0.058334	0.000000	0.077145	63.626908	660.996891	-50.319272	0.363804	0.000000	-0.106474	0.000000	2.074027	0.000000	0.000000	-20.123549	0.000000	
6.279981	-10.625766	84.121591	1.482823	0.059955	0.000000	0.076826	63.499181	666.370157	-50.926725	0.363137	0.000000	-0.106563	0.000000	1.807867	0.000000	0.000000	-20.493710	0.000000	
6.281646	-9.091064	76.891537	1.382036	0.061984	0.000000	0.076476	63.353845	671.692631	-51.518910	0.362467	0.000000	-0.106650	0.000000	1.554021	0.000000	0.000000	-20.856107	0.000000	
6.283315	-7.638732	69.585610	1.278694	0.064488	0.000000	0.076088	63.191744	676.961062	-52.095589	0.361796	0.000000	-0.106735	0.000000	1.314522	0.000000	0.000000	-21.210465	0.000000	
6.284975	-6.282999	62.225961	1.171725	0.067552	0.000000	0.075654	63.013711	682.172094	-52.656541	0.361120	0.000000	-0.106818	0.000000	1.091383	0.000000	0.000000	-21.556524	0.000000	
6.286641	-5.037185	54.857682	1.060693	0.071280	0.000000	0.075167	62.820561	687.322281	-53.201567	0.360442	0.000000	-0.106900	0.000000	0.886477	0.000000	0.000000	-21.894041	0.000000	
6.288326	-3.912878	47.548786	0.945873	0.075803	0.000000	0.074614	62.613094	692.408091	-53.730487	0.359759	0.000000	-0.106980	0.000000	0.701412	0.000000	0.000000	-22.222791	0.000000	
6.289979	-2.919122	40.387913	0.828268	0.081290	0.000000	0.073980	62.392089	697.425912	-54.243142	0.359071	0.000000	-0.107058	0.000000	0.537410	0.000000	0.000000	-22.542562	0.000000	
6.291648	-2.061714	33.479589	0.709555	0.087959	0.000000	0.073246	62.158303	702.372070	-54.739392	0.358379	0.000000	-0.107134	0.000000	0.395201	0.000000	0.000000	-22.853162	0.000000	
6.293312	-1.342667	26.937170	0.591953	0.096098	0.000000	0.072387	61.912471	707.242830	-55.219115	0.357682	0.000000	-0.107209	0.000000	0.274940	0.000000	0.000000	-23.154413	0.000000	
6.294981	-0.759934	20.873967	0.478034	0.000000	0.000000	0.000000	61.655303	712.034413	-55.682206	0.356979	0.000000	-0.107282	0.000000	0.071213	0.000000	0.000000	-23.446151	0.000000	
6.296649	-0.307433	15.393530	0.370477	0.000000	0.000000	0.000000	61.387484	716.743004	-56.128578	0.356272	0.000000	-0.107353	0.000000	0.032344	0.000000	0.000000	-23.728231	0.000000	
6.298308	0.024627	10.580388	0.271812	0.000000	0.000000	0.000000	61.109672	721.364765	-56.558161	0.355558	0.000000	-0.107423	0.000000	0.003475	0.000000	0.000000	-24.000521	0.000000	
6.299978	0.249140	6.492583	0.184188	0.000000	0.000000	0.000000	60.822496	725.895848	-56.970900	0.354839	0.000000	-0.107491	0.000000	-0.016424	0.000000	0.000000	-24.262904	0.000000	
6.301647	0.381284	3.157000	0.109189	0.000000	0.000000	0.000000	60.526559	730.332405	-57.366755	0.354115	0.000000	-0.107558	0.000000	-0.028576	0.000000	0.000000	-24.515278	0.000000	
6.303309	0.000000	0.000000	0.000000	0.000000	0.000000	0.000000	60.222433	734.670603	-57.745702	0.353384	0.000000	-0.107623	0.000000	0.000000	0.000000	0.000000	-24.757555	0.000000	
6.304981	0.000000	0.000000	0.000000	0.000000	0.000000	0.000000	59.910658	738.906637	-58.107729	0.352648	0.000000	-0.107686	0.000000	0.000000	0.000000	0.000000	-24.989661	0.000000	
6.306648	0.000000	0.000000	0.000000	0.000000	0.000000	0.000000	59.591748	743.036743	-58.452839	0.351906	0.000000	-0.107748	0.000000	0.000000	0.000000	0.000000	-25.211536	0.000000	
6.308310	0.000000	0.000000	0.000000	0.000000	0.000000	0.000000	59.266183	747.057212	-58.781046	0.351158	0.000000	-0.107809	0.000000	0.000000	0.000000	0.000000	-25.423131	0.000000	
6.309979	0.000000	0.000000	0.000000	0.000000	0.000000	0.000000	58.934414	750.964402	-59.092376	0.350405	0.000000	-0.107868	0.000000	0.000000	0.000000	0.000000	-25.624414	0.000000	
6.311648	0.000000	0.000000	0.000000	0.000000	0.000000	0.000000	58.596861	754.754755	-59.386868	0.349646	0.000000	-0.107926	0.000000	0.000000	0.000000	0.000000	-25.815361	0.000000	
6.313311	0.000000	0.000000	0.000000	0.000000	0.000000	0.000000	58.253913	758.424808	-59.664572	0.348882	0.000000	-0.107982	0.000000	0.000000	0.000000	0.000000	-25.995964	0.000000	
6.314982	0.000000	0.000000	0.000000	0.000000	0.000000	0.000000	57.905928	761.971207	-59.925547	0.348112	0.000000	-0.108037	0.000000	0.000000	0.000000	0.000000	-26.166224	0.000000	
6.316647	0.000000	0.000000	0.000000	0.000000	0.000000	0.000000	57.553236	765.390721	-60.169862	0.347337	0.000000	-0.108090	0.000000	0.000000	0.000000	0.000000	-26.326156	0.000000	
6.318311	0.000000	0.000000	0.000000	0.000000	0.000000	0.000000	57.196136	768.680257	-60.397597	0.346556	0.000000	-0.108142	0.000000	0.000000	0.000000	0.000000	-26.475786	0.000000	
6.319979	0.000000	0.000000	0.000000	0.000000	0.000000	0.000000	56.834900	771.836867	-60.608842	0.345771	0.000000	-0.108193	0.000000	0.000000	0.000000	0.000000	-26.615150	0.000000	
6.321649	0.000000	0.000000	0.000000	0.000000	0.000000	0.000000	56.469769	774.857770	-60.803692	0.344980	0.000000	-0.108242	0.000000	0.000000	0.000000	0.000000	-26.744296	0.000000	
6.323314	0.000000	0.000000	0.000000	0.000000	0.000000	0.000000	56.100962	777.740353	-60.982256	0.344184	0.000000	-0.108290	0.000000	0.000000	0.000000	0.000000	-26.863282	0.000000	
6.324979	0.000000	0.000000	0.000000	0.000000	0.000000	0.000000	55.728666	780.482193	-61.144649	0.343384	0.000000	-0.108337	0.000000	0.000000	0.000000	0.000000	-26.972176	0.000000	
6.326647	0.000000	0.000000	0.000000	0.000000	0.000000	0.000000	55.353049	783.081061	-61.290994	0.342578	0.000000	-0.108383	0.000000	0.000000	0.000000	0.000000	-27.071056	0.000000	
6.328310	0.000000	0.000000	0.000000	0.000000	0.000000	0.000000	54.974252	785.534936	-61.421423	0.341768	0.000000	-0.108427	0.000000	0.000000	0.000000	0.000000	-27.160010	0.000000	
6.329975	0.000000	0.000000	0.000000	0.000000	0.000000	0.000000	54.592394	787.842013	-61.536076	0.340954	0.000000	-0.108471	0.000000	0.000000	0.000000	0.000000	-27.239135	0.000000	
6.331640	0.000000	0.000000	0.000000	0.000000	0.000000	0.000000	54.207574	790.000714	-61.635104	0.340134	0.000000	-0.108513	0.000000	0.000000	0.000000	0.000000	-27.308538	0.000000	
6.333314	0.000000	0.000000	0.000000	0.000000	0.000000	0.000000	53.819871	792.009694	-61.718662	0.339310	0.000000	-0.108554	0.000000	0.000000	0.000000	0.000000	-27.368334	0.000000	
6.334989	0.000000	0.000000	0.000000	0.000000	0.000000	0.000000	53.429346	793.867851	-61.786917	0.338482	0.000000	-0.108594	0.000000	0.000000	0.000000	0.000000	-27.418646	0.000000	
